<?xml version="1.0" encoding="UTF-8"?>
<svg xmlns="http://www.w3.org/2000/svg" width="16" height="16" viewBox="0 0 16 16">
  <path d="M 2 1 C 0.892 1 0 1.892 0 3 L 0 13 C 0 14.108 0.892 15 2 15 L 14 15 C 15.108 15 16 14.108 16 13 L 16 3 C 16 1.892 15.108 1 14 1 L 2 1 z M 2 2 L 14 2 C 14.554 2 15 2.446 15 3 L 15 13 C 15 13.554 14.554 14 14 14 L 2 14 C 1.446 14 1 13.554 1 13 L 1 3 C 1 2.446 1.446 2 2 2 z M 3 4 L 3 5 L 4 6 L 3 7 L 3 8 L 5 6 L 3 4 z M 6 7 L 6 8 L 10 8 L 10 7 L 6 7 z" fill="#bebebe"/>
</svg>
